<?xml version="1.0" standalone="no"?>
<!DOCTYPE svg PUBLIC "-//W3C//DTD SVG 20010904//EN"
 "http://www.w3.org/TR/2001/REC-SVG-20010904/DTD/svg10.dtd">
<svg version="1.0" xmlns="http://www.w3.org/2000/svg"
 width="500.000000pt" height="500.000000pt" viewBox="0 0 500.000000 500.000000"
 preserveAspectRatio="xMidYMid meet">

<g transform="translate(0.000000,500.000000) scale(0.100000,-0.100000)"
fill="#000000" stroke="none">
<path d="M3190 3140 c-23 -43 -161 -404 -215 -564 -47 -137 -56 -176 -52 -213
10 -94 73 -116 185 -63 47 22 62 26 62 15 0 -8 13 -29 28 -47 52 -58 118 -37
168 55 23 43 28 64 27 119 -1 122 -37 129 -147 29 -61 -56 -93 -76 -156 -100
-95 -37 -100 -37 -100 -8 0 36 107 337 217 610 l56 138 -23 25 c-28 29 -36 30
-50 4z m117 -757 c-17 -31 -57 -72 -57 -57 0 6 14 32 32 60 32 50 51 48 25 -3z"/>
<path d="M2006 2905 c-73 -139 -146 -259 -214 -352 -43 -58 -46 -61 -66 -47
-46 32 -119 6 -170 -61 -57 -74 -82 -165 -54 -193 9 -9 -6 -20 -63 -46 -164
-76 -299 -70 -299 12 0 68 103 234 222 358 43 44 78 86 78 92 0 26 -43 42 -97
35 -64 -7 -75 8 -48 68 37 82 144 154 245 166 55 6 61 17 29 52 -19 21 -28 22
-73 17 -67 -9 -143 -45 -194 -90 -42 -38 -92 -125 -92 -159 0 -34 32 -88 62
-103 l30 -16 -29 -31 c-80 -85 -174 -240 -194 -320 -25 -100 47 -188 165 -202
67 -8 183 22 277 71 76 40 89 55 69 79 -7 9 -11 17 -9 18 2 2 21 12 42 22 21
11 63 42 93 68 30 27 54 47 54 45 0 -2 -14 -39 -30 -82 -28 -73 -29 -80 -15
-102 29 -44 51 -31 81 49 56 149 139 338 230 526 52 107 94 202 94 212 0 17
-27 39 -48 39 -6 0 -40 -56 -76 -125z m-348 -502 c-26 -26 -50 -44 -53 -41 -9
8 69 88 86 88 7 0 -7 -21 -33 -47z"/>
<path d="M2813 2975 c-36 -26 -220 -422 -248 -538 -5 -17 -16 -29 -31 -33 -26
-7 -30 -24 -13 -53 9 -14 7 -35 -10 -98 -11 -44 -21 -94 -21 -112 0 -55 33
-101 71 -101 20 0 122 106 140 145 25 55 24 96 -7 140 l-25 38 86 -5 c96 -5
115 6 78 44 -16 15 -39 21 -102 25 -44 3 -81 10 -81 14 0 20 98 253 148 349
57 112 77 140 99 140 17 0 17 10 -3 38 -18 25 -50 28 -81 7z m-166 -681 c7
-20 -23 -87 -53 -115 -13 -12 -24 -19 -24 -15 0 12 31 130 36 138 9 14 34 9
41 -8z"/>
<path d="M3819 2553 c-16 -52 -72 -162 -97 -193 l-20 -25 5 30 c2 17 9 52 14
79 11 55 -6 96 -40 96 -11 0 -58 -41 -107 -92 -49 -51 -82 -82 -73 -68 43 68
44 70 33 87 -23 37 -44 40 -70 8 -69 -83 -92 -177 -54 -215 40 -40 93 -19 169
67 49 56 51 57 51 30 0 -42 25 -83 59 -97 26 -11 35 -10 57 4 51 34 144 208
144 270 0 23 -28 56 -48 56 -6 0 -16 -17 -23 -37z"/>
<path d="M2158 2439 c-156 -136 -174 -143 -121 -49 27 48 27 49 9 69 -29 32
-52 26 -80 -21 -36 -61 -46 -118 -30 -157 28 -66 94 -58 200 27 l52 41 6 -29
c7 -38 40 -70 70 -70 13 0 41 12 62 26 59 39 164 146 164 167 0 34 -29 30 -77
-13 -54 -47 -131 -95 -139 -87 -3 3 2 31 11 62 17 62 14 90 -15 105 -15 8 -34
-4 -112 -71z"/>
</g>
</svg>
